<mxfile host="app.diagrams.net" agent="Mozilla/5.0 (X11; Linux x86_64; rv:143.0) Gecko/20100101 Firefox/143.0" version="28.2.8">
  <diagram name="PÃ¡gina-1" id="T7AMdKsuqwmecucKetvt">
    <mxGraphModel dx="1426" dy="766" grid="1" gridSize="10" guides="1" tooltips="1" connect="1" arrows="1" fold="1" page="1" pageScale="1" pageWidth="827" pageHeight="1169" background="#ffffff" math="0" shadow="0">
      <root>
        <mxCell id="0" />
        <mxCell id="1" parent="0" />
        <mxCell id="qjilQHqpxyF8IXxSeFaC-5" value="" style="rounded=0;whiteSpace=wrap;html=1;fontColor=light-dark(default, #9a9996);labelBackgroundColor=light-dark(default, #9a9996);" parent="1" vertex="1">
          <mxGeometry x="30" y="10" width="890" height="440" as="geometry" />
        </mxCell>
        <mxCell id="qjilQHqpxyF8IXxSeFaC-46" style="edgeStyle=orthogonalEdgeStyle;rounded=0;orthogonalLoop=1;jettySize=auto;html=1;exitX=1;exitY=0.5;exitDx=0;exitDy=0;" parent="1" source="qjilQHqpxyF8IXxSeFaC-2" target="qjilQHqpxyF8IXxSeFaC-5" edge="1">
          <mxGeometry relative="1" as="geometry">
            <Array as="points">
              <mxPoint x="300" y="310" />
              <mxPoint x="300" y="310" />
            </Array>
          </mxGeometry>
        </mxCell>
        <mxCell id="qjilQHqpxyF8IXxSeFaC-48" style="edgeStyle=orthogonalEdgeStyle;shape=wire;rounded=0;orthogonalLoop=1;jettySize=auto;html=1;dashed=1;" parent="1" source="qjilQHqpxyF8IXxSeFaC-2" target="qjilQHqpxyF8IXxSeFaC-5" edge="1">
          <mxGeometry relative="1" as="geometry">
            <Array as="points">
              <mxPoint x="310" y="260" />
              <mxPoint x="310" y="260" />
            </Array>
          </mxGeometry>
        </mxCell>
        <mxCell id="qjilQHqpxyF8IXxSeFaC-2" value="" style="rounded=1;whiteSpace=wrap;html=1;fillColor=#bac8d3;strokeColor=#23445d;fontColor=light-dark(#000000, #9a9996);" parent="1" vertex="1">
          <mxGeometry x="60" y="105" width="190" height="300" as="geometry" />
        </mxCell>
        <mxCell id="qjilQHqpxyF8IXxSeFaC-4" value="" style="rounded=1;whiteSpace=wrap;html=1;fillColor=light-dark(#b0e3e6, #ffffff);strokeColor=#0e8088;fontColor=light-dark(default, #9a9996);labelBackgroundColor=light-dark(default, #9a9996);" parent="1" vertex="1">
          <mxGeometry x="80" y="140" width="150" height="60" as="geometry" />
        </mxCell>
        <mxCell id="qjilQHqpxyF8IXxSeFaC-6" value="&lt;b&gt;West Europe&lt;/b&gt;" style="text;html=1;whiteSpace=wrap;strokeColor=none;fillColor=none;align=center;verticalAlign=middle;rounded=0;" parent="1" vertex="1">
          <mxGeometry x="90" y="70" width="90" height="30" as="geometry" />
        </mxCell>
        <mxCell id="qjilQHqpxyF8IXxSeFaC-8" value="&lt;div&gt;SUB-Fies&lt;/div&gt;&lt;div align=&quot;left&quot;&gt;10.2.0.0/24&lt;/div&gt;&lt;div&gt;&lt;br&gt;&lt;/div&gt;" style="text;html=1;whiteSpace=wrap;strokeColor=none;fillColor=none;align=center;verticalAlign=middle;rounded=0;labelBackgroundColor=light-dark(default, #9a9996);fontColor=light-dark(#000000, #5e5c64);" parent="1" vertex="1">
          <mxGeometry x="90" y="150" width="80" height="40" as="geometry" />
        </mxCell>
        <mxCell id="qjilQHqpxyF8IXxSeFaC-9" value="&lt;b&gt;10.2.0.0/16&lt;/b&gt;" style="text;html=1;whiteSpace=wrap;strokeColor=none;fillColor=none;align=center;verticalAlign=middle;rounded=0;labelBackgroundColor=light-dark(default, #9a9996);fontColor=light-dark(#000000, #deddda);" parent="1" vertex="1">
          <mxGeometry x="100" y="375" width="80" height="40" as="geometry" />
        </mxCell>
        <mxCell id="qjilQHqpxyF8IXxSeFaC-10" value="&lt;b&gt;VNET-EUR01&lt;/b&gt;" style="text;html=1;whiteSpace=wrap;strokeColor=none;fillColor=none;align=center;verticalAlign=middle;rounded=0;" parent="1" vertex="1">
          <mxGeometry x="80" y="410" width="90" height="30" as="geometry" />
        </mxCell>
        <mxCell id="qjilQHqpxyF8IXxSeFaC-11" value="" style="image;aspect=fixed;html=1;points=[];align=center;fontSize=12;image=img/lib/azure2/networking/Virtual_Networks.svg;" parent="1" vertex="1">
          <mxGeometry x="210" y="390" width="50.25" height="30" as="geometry" />
        </mxCell>
        <mxCell id="qjilQHqpxyF8IXxSeFaC-14" value="" style="rounded=1;whiteSpace=wrap;html=1;fillColor=#bac8d3;strokeColor=#23445d;fontColor=light-dark(#000000, #9a9996);" parent="1" vertex="1">
          <mxGeometry x="340" y="110" width="190" height="300" as="geometry" />
        </mxCell>
        <mxCell id="qjilQHqpxyF8IXxSeFaC-16" value="&lt;b&gt;10.1.0.0/16&lt;/b&gt;" style="text;html=1;whiteSpace=wrap;strokeColor=none;fillColor=none;align=center;verticalAlign=middle;rounded=0;labelBackgroundColor=light-dark(default, #9a9996);fontColor=light-dark(#000000, #deddda);" parent="1" vertex="1">
          <mxGeometry x="395" y="365" width="80" height="60" as="geometry" />
        </mxCell>
        <mxCell id="qjilQHqpxyF8IXxSeFaC-18" value="&lt;b&gt;East US&lt;/b&gt;" style="text;html=1;whiteSpace=wrap;strokeColor=none;fillColor=none;align=center;verticalAlign=middle;rounded=0;" parent="1" vertex="1">
          <mxGeometry x="380" y="70" width="90" height="30" as="geometry" />
        </mxCell>
        <mxCell id="qjilQHqpxyF8IXxSeFaC-19" value="&lt;b&gt;VNET-USA01&lt;/b&gt;" style="text;html=1;whiteSpace=wrap;strokeColor=none;fillColor=none;align=center;verticalAlign=middle;rounded=0;" parent="1" vertex="1">
          <mxGeometry x="390" y="410" width="90" height="30" as="geometry" />
        </mxCell>
        <mxCell id="qjilQHqpxyF8IXxSeFaC-20" value="" style="rounded=1;whiteSpace=wrap;html=1;fillColor=#bac8d3;strokeColor=#23445d;fontColor=light-dark(#000000, #9a9996);" parent="1" vertex="1">
          <mxGeometry x="637" y="110" width="190" height="300" as="geometry" />
        </mxCell>
        <mxCell id="qjilQHqpxyF8IXxSeFaC-21" value="" style="rounded=1;whiteSpace=wrap;html=1;fillColor=light-dark(#b0e3e6, #ffffff);strokeColor=#0e8088;fontColor=light-dark(default, #9a9996);labelBackgroundColor=light-dark(default, #9a9996);" parent="1" vertex="1">
          <mxGeometry x="650" y="140" width="150" height="60" as="geometry" />
        </mxCell>
        <mxCell id="qjilQHqpxyF8IXxSeFaC-22" value="&lt;div&gt;SUB-WebServers&lt;/div&gt;&lt;div align=&quot;left&quot;&gt;10.3.0.0/24&lt;/div&gt;&lt;div&gt;&lt;br&gt;&lt;/div&gt;" style="text;html=1;whiteSpace=wrap;strokeColor=none;fillColor=none;align=center;verticalAlign=middle;rounded=0;labelBackgroundColor=light-dark(default, #9a9996);fontColor=light-dark(#000000, #5e5c64);" parent="1" vertex="1">
          <mxGeometry x="670" y="150" width="110" height="40" as="geometry" />
        </mxCell>
        <mxCell id="qjilQHqpxyF8IXxSeFaC-23" value="" style="group" parent="1" vertex="1" connectable="0">
          <mxGeometry x="370" y="140" width="150" height="60" as="geometry" />
        </mxCell>
        <mxCell id="qjilQHqpxyF8IXxSeFaC-15" value="" style="rounded=1;whiteSpace=wrap;html=1;fillColor=light-dark(#b0e3e6, #ffffff);strokeColor=#0e8088;fontColor=light-dark(default, #9a9996);labelBackgroundColor=light-dark(default, #9a9996);" parent="qjilQHqpxyF8IXxSeFaC-23" vertex="1">
          <mxGeometry width="150" height="60" as="geometry" />
        </mxCell>
        <mxCell id="qjilQHqpxyF8IXxSeFaC-17" value="&lt;div&gt;GatewaySubnet&lt;/div&gt;&lt;div align=&quot;left&quot;&gt;10.1.255.0/27&lt;/div&gt;&lt;div&gt;&lt;br&gt;&lt;/div&gt;" style="text;html=1;whiteSpace=wrap;strokeColor=none;fillColor=none;align=center;verticalAlign=middle;rounded=0;labelBackgroundColor=light-dark(default, #9a9996);fontColor=light-dark(#000000, #5e5c64);" parent="qjilQHqpxyF8IXxSeFaC-23" vertex="1">
          <mxGeometry x="20" y="10" width="80" height="40" as="geometry" />
        </mxCell>
        <mxCell id="qjilQHqpxyF8IXxSeFaC-53" style="edgeStyle=orthogonalEdgeStyle;shape=wire;rounded=0;orthogonalLoop=1;jettySize=auto;html=1;exitX=1;exitY=0.5;exitDx=0;exitDy=0;entryX=0.875;entryY=0.5;entryDx=0;entryDy=0;entryPerimeter=0;dashed=1;" parent="qjilQHqpxyF8IXxSeFaC-23" source="qjilQHqpxyF8IXxSeFaC-17" target="qjilQHqpxyF8IXxSeFaC-17" edge="1">
          <mxGeometry relative="1" as="geometry" />
        </mxCell>
        <mxCell id="qjilQHqpxyF8IXxSeFaC-24" value="" style="group" parent="1" vertex="1" connectable="0">
          <mxGeometry x="370" y="220" width="150" height="60" as="geometry" />
        </mxCell>
        <mxCell id="qjilQHqpxyF8IXxSeFaC-25" value="" style="rounded=1;whiteSpace=wrap;html=1;fillColor=light-dark(#b0e3e6, #ffffff);strokeColor=#0e8088;fontColor=light-dark(default, #9a9996);labelBackgroundColor=light-dark(default, #9a9996);" parent="qjilQHqpxyF8IXxSeFaC-24" vertex="1">
          <mxGeometry width="150" height="60" as="geometry" />
        </mxCell>
        <mxCell id="qjilQHqpxyF8IXxSeFaC-26" value="&lt;div&gt;SUB-CoreServidores&lt;/div&gt;&lt;div align=&quot;left&quot;&gt;10.1.0.0/24&lt;/div&gt;&lt;div&gt;&lt;br&gt;&lt;/div&gt;" style="text;html=1;whiteSpace=wrap;strokeColor=none;fillColor=none;align=center;verticalAlign=middle;rounded=0;labelBackgroundColor=light-dark(default, #9a9996);fontColor=light-dark(#000000, #5e5c64);" parent="qjilQHqpxyF8IXxSeFaC-24" vertex="1">
          <mxGeometry x="20" y="10" width="80" height="40" as="geometry" />
        </mxCell>
        <mxCell id="qjilQHqpxyF8IXxSeFaC-27" value="" style="group" parent="1" vertex="1" connectable="0">
          <mxGeometry x="370" y="300" width="150" height="60" as="geometry" />
        </mxCell>
        <mxCell id="qjilQHqpxyF8IXxSeFaC-28" value="" style="rounded=1;whiteSpace=wrap;html=1;fillColor=light-dark(#b0e3e6, #ffffff);strokeColor=#0e8088;fontColor=light-dark(default, #9a9996);labelBackgroundColor=light-dark(default, #9a9996);" parent="qjilQHqpxyF8IXxSeFaC-27" vertex="1">
          <mxGeometry width="150" height="60" as="geometry" />
        </mxCell>
        <mxCell id="qjilQHqpxyF8IXxSeFaC-29" value="&lt;div&gt;SUB-Security&lt;/div&gt;&lt;div align=&quot;left&quot;&gt;10.1.1.0/24&lt;/div&gt;&lt;div&gt;&lt;br&gt;&lt;/div&gt;" style="text;html=1;whiteSpace=wrap;strokeColor=none;fillColor=none;align=center;verticalAlign=middle;rounded=0;labelBackgroundColor=light-dark(default, #9a9996);fontColor=light-dark(#000000, #5e5c64);" parent="qjilQHqpxyF8IXxSeFaC-27" vertex="1">
          <mxGeometry x="20" y="10" width="80" height="40" as="geometry" />
        </mxCell>
        <mxCell id="qjilQHqpxyF8IXxSeFaC-30" value="" style="group" parent="1" vertex="1" connectable="0">
          <mxGeometry x="660" y="220" width="150" height="60" as="geometry" />
        </mxCell>
        <mxCell id="qjilQHqpxyF8IXxSeFaC-31" value="" style="rounded=1;whiteSpace=wrap;html=1;fillColor=light-dark(#b0e3e6, #ffffff);strokeColor=#0e8088;fontColor=light-dark(default, #9a9996);labelBackgroundColor=light-dark(default, #9a9996);" parent="qjilQHqpxyF8IXxSeFaC-30" vertex="1">
          <mxGeometry width="150" height="60" as="geometry" />
        </mxCell>
        <mxCell id="qjilQHqpxyF8IXxSeFaC-32" value="&lt;div&gt;SUB-Database&lt;/div&gt;&lt;div align=&quot;left&quot;&gt;10.3.1.0/24&lt;/div&gt;&lt;div&gt;&lt;br&gt;&lt;/div&gt;" style="text;html=1;whiteSpace=wrap;strokeColor=none;fillColor=none;align=center;verticalAlign=middle;rounded=0;labelBackgroundColor=light-dark(default, #9a9996);fontColor=light-dark(#000000, #5e5c64);" parent="qjilQHqpxyF8IXxSeFaC-30" vertex="1">
          <mxGeometry x="20" y="10" width="110" height="40" as="geometry" />
        </mxCell>
        <mxCell id="qjilQHqpxyF8IXxSeFaC-33" value="" style="group" parent="1" vertex="1" connectable="0">
          <mxGeometry x="660" y="310" width="150" height="60" as="geometry" />
        </mxCell>
        <mxCell id="qjilQHqpxyF8IXxSeFaC-34" value="" style="rounded=1;whiteSpace=wrap;html=1;fillColor=light-dark(#b0e3e6, #ffffff);strokeColor=#0e8088;fontColor=light-dark(default, #9a9996);labelBackgroundColor=light-dark(default, #9a9996);" parent="qjilQHqpxyF8IXxSeFaC-33" vertex="1">
          <mxGeometry width="150" height="60" as="geometry" />
        </mxCell>
        <mxCell id="qjilQHqpxyF8IXxSeFaC-35" value="&lt;div&gt;SUB-Storage&lt;/div&gt;&lt;div align=&quot;left&quot;&gt;10.3.2.0/24&lt;/div&gt;&lt;div&gt;&lt;br&gt;&lt;/div&gt;" style="text;html=1;whiteSpace=wrap;strokeColor=none;fillColor=none;align=center;verticalAlign=middle;rounded=0;labelBackgroundColor=light-dark(default, #9a9996);fontColor=light-dark(#000000, #5e5c64);" parent="qjilQHqpxyF8IXxSeFaC-33" vertex="1">
          <mxGeometry x="20" y="10" width="100" height="40" as="geometry" />
        </mxCell>
        <mxCell id="qjilQHqpxyF8IXxSeFaC-36" value="" style="image;aspect=fixed;html=1;points=[];align=center;fontSize=12;image=img/lib/azure2/networking/Virtual_Networks.svg;fontStyle=1" parent="1" vertex="1">
          <mxGeometry x="500" y="400" width="50.25" height="30" as="geometry" />
        </mxCell>
        <mxCell id="qjilQHqpxyF8IXxSeFaC-37" value="" style="image;aspect=fixed;html=1;points=[];align=center;fontSize=12;image=img/lib/azure2/networking/Virtual_Networks.svg;" parent="1" vertex="1">
          <mxGeometry x="790" y="390" width="50.25" height="30" as="geometry" />
        </mxCell>
        <mxCell id="qjilQHqpxyF8IXxSeFaC-38" value="&lt;b&gt;Brazil Soutth&lt;/b&gt;" style="text;html=1;whiteSpace=wrap;strokeColor=none;fillColor=none;align=center;verticalAlign=middle;rounded=0;" parent="1" vertex="1">
          <mxGeometry x="690" y="70" width="90" height="30" as="geometry" />
        </mxCell>
        <mxCell id="qjilQHqpxyF8IXxSeFaC-39" value="&lt;b&gt;VNET-BRA01&lt;/b&gt;" style="text;html=1;whiteSpace=wrap;strokeColor=none;fillColor=none;align=center;verticalAlign=middle;rounded=0;" parent="1" vertex="1">
          <mxGeometry x="700" y="410" width="90" height="30" as="geometry" />
        </mxCell>
        <mxCell id="qjilQHqpxyF8IXxSeFaC-43" value="&lt;b&gt;10.3.0.0/16&lt;/b&gt;" style="text;html=1;whiteSpace=wrap;strokeColor=none;fillColor=none;align=center;verticalAlign=middle;rounded=0;labelBackgroundColor=light-dark(default, #9a9996);fontColor=light-dark(#000000, #deddda);" parent="1" vertex="1">
          <mxGeometry x="660" y="380" width="80" height="20" as="geometry" />
        </mxCell>
        <mxCell id="qjilQHqpxyF8IXxSeFaC-55" value="" style="group" parent="1" vertex="1" connectable="0">
          <mxGeometry x="250.13" y="230" width="80" height="40" as="geometry" />
        </mxCell>
        <mxCell id="qjilQHqpxyF8IXxSeFaC-52" value="" style="group" parent="qjilQHqpxyF8IXxSeFaC-55" vertex="1" connectable="0">
          <mxGeometry x="9.870000000000005" y="30" width="60.25" height="10" as="geometry" />
        </mxCell>
        <mxCell id="qjilQHqpxyF8IXxSeFaC-49" value="" style="rounded=0;orthogonalLoop=1;jettySize=auto;html=1;" parent="qjilQHqpxyF8IXxSeFaC-52" edge="1">
          <mxGeometry relative="1" as="geometry">
            <mxPoint x="60" as="sourcePoint" />
            <mxPoint as="targetPoint" />
          </mxGeometry>
        </mxCell>
        <mxCell id="qjilQHqpxyF8IXxSeFaC-51" value="" style="rounded=0;orthogonalLoop=1;jettySize=auto;html=1;" parent="qjilQHqpxyF8IXxSeFaC-52" edge="1">
          <mxGeometry relative="1" as="geometry">
            <mxPoint x="0.25" y="10" as="sourcePoint" />
            <mxPoint x="60.25" y="10" as="targetPoint" />
          </mxGeometry>
        </mxCell>
        <mxCell id="qjilQHqpxyF8IXxSeFaC-54" value="&lt;div&gt;&lt;b&gt;Peering&lt;/b&gt;&lt;/div&gt;" style="text;html=1;whiteSpace=wrap;strokeColor=none;fillColor=none;align=center;verticalAlign=middle;rounded=0;labelBackgroundColor=light-dark(default, #9a9996);fontColor=light-dark(#000000, #deddda);" parent="qjilQHqpxyF8IXxSeFaC-55" vertex="1">
          <mxGeometry width="80" height="30" as="geometry" />
        </mxCell>
        <mxCell id="qjilQHqpxyF8IXxSeFaC-56" value="" style="group" parent="1" vertex="1" connectable="0">
          <mxGeometry x="540" y="230" width="80" height="40" as="geometry" />
        </mxCell>
        <mxCell id="qjilQHqpxyF8IXxSeFaC-57" value="" style="group" parent="qjilQHqpxyF8IXxSeFaC-56" vertex="1" connectable="0">
          <mxGeometry x="9.870000000000005" y="30" width="60.25" height="10" as="geometry" />
        </mxCell>
        <mxCell id="qjilQHqpxyF8IXxSeFaC-58" value="" style="rounded=0;orthogonalLoop=1;jettySize=auto;html=1;" parent="qjilQHqpxyF8IXxSeFaC-57" edge="1">
          <mxGeometry relative="1" as="geometry">
            <mxPoint x="60" as="sourcePoint" />
            <mxPoint as="targetPoint" />
          </mxGeometry>
        </mxCell>
        <mxCell id="qjilQHqpxyF8IXxSeFaC-59" value="" style="rounded=0;orthogonalLoop=1;jettySize=auto;html=1;" parent="qjilQHqpxyF8IXxSeFaC-57" edge="1">
          <mxGeometry relative="1" as="geometry">
            <mxPoint x="0.25" y="10" as="sourcePoint" />
            <mxPoint x="60.25" y="10" as="targetPoint" />
          </mxGeometry>
        </mxCell>
        <mxCell id="qjilQHqpxyF8IXxSeFaC-60" value="&lt;div&gt;&lt;b&gt;Peering&lt;/b&gt;&lt;/div&gt;" style="text;html=1;whiteSpace=wrap;strokeColor=none;fillColor=none;align=center;verticalAlign=middle;rounded=0;labelBackgroundColor=light-dark(default, #9a9996);fontColor=light-dark(#000000, #deddda);" parent="qjilQHqpxyF8IXxSeFaC-56" vertex="1">
          <mxGeometry width="80" height="30" as="geometry" />
        </mxCell>
        <mxCell id="OxOw29GmJYN7soE5R50Y-5" value="&lt;b&gt;WPA TEC&lt;/b&gt;" style="text;html=1;whiteSpace=wrap;strokeColor=none;fillColor=none;align=center;verticalAlign=middle;rounded=0;" vertex="1" parent="1">
          <mxGeometry x="40" y="20" width="90" height="30" as="geometry" />
        </mxCell>
      </root>
    </mxGraphModel>
  </diagram>
</mxfile>
